{"title":"+18 Face Of Terror (2003) DVDrip Dual Audio [Hindi,Eng] -=R=-GOP","uid":9013540,"size":773505321,"categoryP":"video","categoryS":"hd___movies","magnet":"?xt=urn:btih:272c38f33b7286a16c25c8a39bb74e037d740856&amp;dn=%2B18+Face+Of+Terror+%282003%29+DVDrip+Dual+Audio+%5BHindi%2CEng%5D+-%3DR%3D-GOP&amp;tr=udp%3A%2F%2Ftracker.openbittorrent.com%3A80&amp;tr=udp%3A%2F%2Fopen.demonii.com%3A1337&amp;tr=udp%3A%2F%2Ftracker.coppersurfer.tk%3A6969&amp;tr=udp%3A%2F%2Fexodus.desync.com%3A6969","seeders":0,"leechers":4,"uploader":"jatt13","files":7,"time":1381152100,"description":"[img]http://imageshack.us/a/img802/2678/k9wp.png[/img]\n\n[img]http://imageshack.us/a/img809/9999/le1c.jpg[/img]\n\n[img]http://imageshack.us/a/img191/3500/bpnc.jpg[/img]\n[img]http://imageshack.us/a/img513/8431/9alx.png[/img]\n[img]http://imageshack.us/a/img266/782/swvu.png[/img]\n[img]http://imageshack.us/a/img7/83/ohc9.png[/img]\n[img]http://imageshack.us/a/img405/7305/gf22.png[/img]\n[img]http://imageshack.us/a/img42/7262/zjes.png[/img]\n\n\nVideo\nID                             : 1\nFormat                         : MPEG-4 Visual\nFormat profile                 : Advanced Simple@L5\nFormat settings, BVOP          : Yes\nFormat settings, QPel          : No\nFormat settings, GMC           : No warppoints\nFormat settings, Matrix        : Default (H.263)\nCodec ID                       : V_MS/VFW/FOURCC / XVID\nCodec ID/Hint                  : XviD\nDuration                       : 1h 35mn\nBit rate                       : 801 Kbps\nWidth                          : 592 pixels\nHeight                         : 320 pixels\nDisplay aspect ratio           : 1.85:1\nFrame rate mode                : Constant\nFrame rate                     : 25.000 fps\nColor space                    : YUV\nChroma subsampling             : 4:2:0\nBit depth                      : 8 bits\nScan type                      : Progressive\nCompression mode               : Lossy\nBits/(Pixel*Frame)             : 0.169\nStream size                    : 547 MiB (74%)\nTitle                          : GOPI SAHI\nWriting library                : XviD 1.0.1 (UTC 2004-06-05)\nLanguage                       : English\nDefault                        : Yes\nForced                         : No\n\nAudio #1\nID                             : 2\nFormat                         : MPEG Audio\nFormat version                 : Version 1\nFormat profile                 : Layer 3\nMode                           : Joint stereo\nMode extension                 : MS Stereo\nCodec ID                       : A_MPEG/L3\nCodec ID/Hint                  : MP3\nDuration                       : 1h 34mn\nBit rate mode                  : Variable\nBit rate                       : 128 Kbps\nChannel count                  : 2 channels\nSampling rate                  : 48.0 KHz\nCompression mode               : Lossy\nStream size                    : 86.1 MiB (12%)\nTitle                          : GOPI SAHI\nWriting library                : LAME3.92 \nEncoding settings              : -m j -V 4 -q 2 -lowpass 17.5 --abr 128\nLanguage                       : English\nDefault                        : No\nForced                         : No\n\nAudio #2\nID                             : 3\nFormat                         : MPEG Audio\nFormat version                 : Version 1\nFormat profile                 : Layer 3\nCodec ID                       : A_MPEG/L3\nCodec ID/Hint                  : MP3\nDuration                       : 1h 35mn\nBit rate mode                  : Constant\nBit rate                       : 128 Kbps\nChannel count                  : 2 channels\nSampling rate                  : 44.1 KHz\nCompression mode               : Lossy\nStream size                    : 87.4 MiB (12%)\nTitle                          : GOPI SAHI\nLanguage                       : Hindi\nDefault                        : Yes\nForced                         : No\n","torrent":{"xt":"urn:btih:272c38f33b7286a16c25c8a39bb74e037d740856","amp;dn":"%2B18+Face+Of+Terror+%282003%29+DVDrip+Dual+Audio+%5BHindi%2CEng%5D+-%3DR%3D-GOP","amp;tr":["udp%3A%2F%2Ftracker.openbittorrent.com%3A80","udp%3A%2F%2Fopen.demonii.com%3A1337","udp%3A%2F%2Ftracker.coppersurfer.tk%3A6969","udp%3A%2F%2Fexodus.desync.com%3A6969"],"infoHash":"272c38f33b7286a16c25c8a39bb74e037d740856","infoHashBuffer":{"type":"Buffer","data":[39,44,56,243,59,114,134,161,108,37,200,163,155,183,78,3,125,116,8,86]},"announce":[],"urlList":[]}}